<?xml version="1.0" encoding="UTF-8"?>
<svg width="16px" height="24px" viewBox="0 0 16 24" version="1.1" xmlns="http://www.w3.org/2000/svg" xmlns:xlink="http://www.w3.org/1999/xlink">
    <!-- Generator: Sketch 40.3 (33839) - http://www.bohemiancoding.com/sketch -->
    <title>person</title>
    <desc>Created with Sketch.</desc>
    <defs></defs>
    <g id="Octicons" stroke="none" stroke-width="1" fill="none" fill-rule="evenodd">
        <g id="person" fill="#000000">
            <path d="M16,20a1.331,1.331,0,0,1-1.331,1.331H1.335A1.334,1.334,0,0,1,0,20V18.667c0-3.511,5.333-5.333,5.333-5.333a1.644,1.644,0,0,0,0-1.333C4.212,11.173,4.075,9.88,4,6.667c.231-3.217,2.489-4,4-4s3.769.781,4,4c-.075,3.213-.212,4.507-1.333,5.333a1.645,1.645,0,0,0,0,1.333S16,15.156,16,18.667Z" id="Shape"></path>
        </g>
    </g>
</svg>